<?xml version="1.0" encoding="UTF-8" standalone="no"?>
<!-- Created with Inkscape (http://www.inkscape.org/) -->

<svg
   xmlns:dc="http://purl.org/dc/elements/1.1/"
   xmlns:cc="http://creativecommons.org/ns#"
   xmlns:rdf="http://www.w3.org/1999/02/22-rdf-syntax-ns#"
   xmlns:svg="http://www.w3.org/2000/svg"
   xmlns="http://www.w3.org/2000/svg"
   xmlns:sodipodi="http://sodipodi.sourceforge.net/DTD/sodipodi-0.dtd"
   xmlns:inkscape="http://www.inkscape.org/namespaces/inkscape"
   width="460"
   height="493.0235"
   id="svg2"
   version="1.1"
   inkscape:version="0.48.4 r9939"
   sodipodi:docname="conserv_12_potential.svg">
  <sodipodi:namedview
     id="base"
     pagecolor="#ffffff"
     bordercolor="#666666"
     borderopacity="1.0"
     inkscape:pageopacity="0.0"
     inkscape:pageshadow="2"
     inkscape:zoom="0.70710678"
     inkscape:cx="185.75604"
     inkscape:cy="100.86142"
     inkscape:document-units="px"
     inkscape:current-layer="svg2"
     showgrid="true"
     inkscape:window-width="1366"
     inkscape:window-height="748"
     inkscape:window-x="-8"
     inkscape:window-y="-8"
     inkscape:window-maximized="1"
     fit-margin-top="0"
     fit-margin-left="0"
     fit-margin-right="-100"
     fit-margin-bottom="-2200">
    <inkscape:grid
       id="grid2985"
       type="xygrid"
       empspacing="5"
       visible="true"
       enabled="true"
       snapvisiblegridlinesonly="true"
       originx="-99.999999px"
       originy="-201.62594px" />
  </sodipodi:namedview>
  <defs
     id="defs4" />
  <metadata
     id="metadata7">
    <rdf:RDF>
      <cc:Work
         rdf:about="">
        <dc:format>image/svg+xml</dc:format>
        <dc:type
           rdf:resource="http://purl.org/dc/dcmitype/StillImage" />
        <dc:title></dc:title>
      </cc:Work>
    </rdf:RDF>
  </metadata>
  <g
     id="layer1"
     inkscape:groupmode="layer"
     inkscape:label="Layer 1"
     transform="translate(-99.999999,-357.71242)" />
  <path
     id="path4294"
     title="-pow(sinh(x),2)"
     d="m 49.999998,229.19521 c 5.65217,1.4e-4 11.30435,0.13855 16.95652,0.41998 5.65218,0.28142 11.30435,0.70641 16.95652,1.28865 5.65218,0.58225 11.30435,1.32262 16.956532,2.24554 5.65217,0.92291 11.30434,2.02935 16.95652,3.3561 5.65217,1.32675 11.30434,2.87496 16.95652,4.69635 5.65217,1.82139 11.30435,3.91735 16.95652,6.35803 5.65217,2.44068 11.30435,5.22783 16.95652,8.45484 5.65218,3.22702 11.30435,6.8961 16.95652,11.13031 5.65218,4.2342 11.30435,9.03633 16.95653,14.56751 5.65217,5.53119 11.30434,11.79502 16.95652,19.00174 5.65217,7.20671 11.30435,15.36095 16.95652,24.73642 5.65217,9.37546 11.30435,19.97818 16.95652,32.16406 5.65217,12.18587 11.30435,25.96271 16.95652,41.793 5.65218,15.83028 11.30435,33.72413 16.95652,54.28224 5.65218,20.55812 11.30435,43.79361 16.95653,70.48655 5.65217,26.69294 11.30434,56.86032 16.95652,91.51494 5.65217,34.65461 11.30435,73.81851 16.95652,118.80661 5.65217,44.988 11.30435,95.8288 16.95652,154.2293 5.65218,58.4004 11.30435,124.39772 16.95652,200.20752 5.65218,75.8097 11.30435,161.4803 16.95652,259.8877 5.65218,98.4075 11.30435,209.6146 16.95653,337.3547 5.65217,127.7402 11.30434,272.0948 16.95652,437.9102 5.65217,165.8154 11.30435,353.1971 16.95652,568.436"
     style="fill:none;stroke:#000000;stroke-width:1;stroke-miterlimit:4;stroke-opacity:1;stroke-dasharray:none;stroke-dashoffset:0"
     inkscape:connector-curvature="0" />
  <path
     style="fill:none;stroke:#000000;stroke-width:1px;stroke-linecap:butt;stroke-linejoin:miter;stroke-opacity:1"
     d="m 49.999998,229.64976 365.000002,0"
     id="path4301"
     inkscape:connector-curvature="0" />
  <path
     style="fill:none;stroke:#000000;stroke-width:1px;stroke-linecap:butt;stroke-linejoin:miter;stroke-opacity:1"
     d="m 410,224.64976 5,5 -5,5"
     id="path4303"
     inkscape:connector-curvature="0" />
  <path
     style="fill:none;stroke:#000000;stroke-width:1px;stroke-linecap:butt;stroke-linejoin:miter;stroke-opacity:1"
     d="m 49.999998,229.64976 -25,0"
     id="path4305"
     inkscape:connector-curvature="0" />
  <path
     style="fill:none;stroke:#000000;stroke-width:1px;stroke-linecap:butt;stroke-linejoin:miter;stroke-opacity:1"
     d="m 49.999998,189.64976 0,525.00002"
     id="path4307"
     inkscape:connector-curvature="0" />
  <path
     style="fill:none;stroke:#000000;stroke-width:1px;stroke-linecap:butt;stroke-linejoin:miter;stroke-opacity:1"
     d="m 49.999998,194.64977 0,-170.000021"
     id="path4311"
     inkscape:connector-curvature="0" />
  <path
     style="opacity:0.98999999;fill:none;stroke:#000000;stroke-width:1;stroke-linecap:butt;stroke-linejoin:miter;stroke-miterlimit:4;stroke-opacity:1;stroke-dasharray:12, 12;stroke-dashoffset:0"
     d="m 49.999998,64.649749 350.000002,0"
     id="path4313"
     inkscape:connector-curvature="0" />
  <path
     style="fill:none;stroke:#000000;stroke-width:1px;stroke-linecap:butt;stroke-linejoin:miter;stroke-opacity:1"
     d="m 39.999998,34.649749 10,-10 10,10"
     id="path4315"
     inkscape:connector-curvature="0" />
  <text
     xml:space="preserve"
     style="font-size:16px;font-style:oblique;font-weight:normal;line-height:125%;letter-spacing:0px;word-spacing:0px;fill:#000000;fill-opacity:1;stroke:none;font-family:Times New Roman;-inkscape-font-specification:Sans Oblique"
     x="342.42856"
     y="60.792622"
     id="text4317"
     sodipodi:linespacing="125%"><tspan
       sodipodi:role="line"
       id="tspan4319"
       x="342.42856"
       y="60.792622">total energy</tspan></text>
  <text
     xml:space="preserve"
     style="font-size:18px;font-style:oblique;font-weight:normal;line-height:125%;letter-spacing:0px;word-spacing:0px;fill:#000000;fill-opacity:1;stroke:none;font-family:Times New Roman;-inkscape-font-specification:Sans Oblique"
     x="32.571426"
     y="70.649757"
     id="text4321"
     sodipodi:linespacing="125%"><tspan
       sodipodi:role="line"
       id="tspan4323"
       x="32.571426"
       y="70.649757">E</tspan></text>
  <text
     xml:space="preserve"
     style="font-size:18px;font-style:oblique;font-weight:normal;line-height:125%;letter-spacing:0px;word-spacing:0px;fill:#000000;fill-opacity:1;stroke:none;font-family:Times New Roman;-inkscape-font-specification:Sans Oblique"
     x="15.142851"
     y="19.364063"
     id="text4325"
     sodipodi:linespacing="125%"><tspan
       sodipodi:role="line"
       id="tspan4327"
       x="15.142851"
       y="19.364063"
       style="font-size:18px">V(x)=-Esinh<tspan
   style="font-size:18px;baseline-shift:super"
   id="tspan4329">2</tspan>(x/σ)</tspan></text>
  <path
     style="fill:none;stroke:#000000;stroke-width:1px;stroke-linecap:butt;stroke-linejoin:miter;stroke-opacity:1"
     d="m 405,219.64976 10,10 -10,10"
     id="path4315-1"
     inkscape:connector-curvature="0" />
  <text
     xml:space="preserve"
     style="font-size:18px;font-style:oblique;font-weight:normal;line-height:125%;letter-spacing:0px;word-spacing:0px;fill:#000000;fill-opacity:1;stroke:none;font-family:Times New Roman;-inkscape-font-specification:Sans Oblique"
     x="422.85712"
     y="236.07835"
     id="text4351"
     sodipodi:linespacing="125%"><tspan
       sodipodi:role="line"
       id="tspan4353"
       x="422.85712"
       y="236.07835">x/σ</tspan></text>
  <rect
     style="opacity:0.98999999;fill:#ffffff;fill-opacity:1;stroke:#000000;stroke-width:1;stroke-miterlimit:4;stroke-opacity:1;stroke-dasharray:12, 12;stroke-dashoffset:0"
     id="rect4355"
     width="40"
     height="40"
     x="320"
     y="714.64966"
     rx="2.7755576e-017" />
  <rect
     style="opacity:0.98999999;fill:#ffffff;fill-opacity:1;stroke:#000000;stroke-width:0;stroke-miterlimit:4;stroke-opacity:1;stroke-dasharray:none;stroke-dashoffset:0"
     id="rect3002"
     width="560"
     height="300"
     x="0"
     y="494.64963"
     rx="2.7755576e-017" />
  <rect
     style="opacity:0.98999999;fill:#ffffff;fill-opacity:1;stroke:#000000;stroke-width:0;stroke-miterlimit:4;stroke-opacity:1;stroke-dasharray:none;stroke-dashoffset:0"
     id="rect3772"
     width="40"
     height="40"
     x="280"
     y="474.64944"
     rx="2.7755576e-017" />
</svg>
