<?xml version="1.0" encoding="UTF-8" standalone="no"?>
<!-- Created with Inkscape (http://www.inkscape.org/) -->

<svg
   xmlns:dc="http://purl.org/dc/elements/1.1/"
   xmlns:cc="http://creativecommons.org/ns#"
   xmlns:rdf="http://www.w3.org/1999/02/22-rdf-syntax-ns#"
   xmlns:svg="http://www.w3.org/2000/svg"
   xmlns="http://www.w3.org/2000/svg"
   xmlns:sodipodi="http://sodipodi.sourceforge.net/DTD/sodipodi-0.dtd"
   xmlns:inkscape="http://www.inkscape.org/namespaces/inkscape"
   width="458.13013"
   height="184.88786"
   id="svg2"
   version="1.1"
   inkscape:version="0.48.4 r9939"
   sodipodi:docname="New document 1">
  <sodipodi:namedview
     id="base"
     pagecolor="#ffffff"
     bordercolor="#666666"
     borderopacity="1.0"
     inkscape:pageopacity="0.0"
     inkscape:pageshadow="2"
     inkscape:zoom="1.979899"
     inkscape:cx="220.34043"
     inkscape:cy="92.062702"
     inkscape:document-units="px"
     inkscape:current-layer="layer1"
     showgrid="true"
     inkscape:window-width="1366"
     inkscape:window-height="748"
     inkscape:window-x="-8"
     inkscape:window-y="-8"
     inkscape:window-maximized="1"
     fit-margin-top="0"
     fit-margin-left="0"
     fit-margin-right="0"
     fit-margin-bottom="0">
    <inkscape:grid
       id="grid2985"
       type="xygrid"
       empspacing="5"
       visible="true"
       enabled="true"
       snapvisiblegridlinesonly="true"
       originx="-78.5px"
       originy="-416.96075px" />
  </sodipodi:namedview>
  <defs
     id="defs4" />
  <metadata
     id="metadata7">
    <rdf:RDF>
      <cc:Work
         rdf:about="">
        <dc:format>image/svg+xml</dc:format>
        <dc:type
           rdf:resource="http://purl.org/dc/dcmitype/StillImage" />
        <dc:title></dc:title>
      </cc:Work>
    </rdf:RDF>
  </metadata>
  <g
     id="layer1"
     inkscape:groupmode="layer"
     inkscape:label="Layer 1"
     transform="translate(-78.5,-450.51357)">
    <path
       id="path4303"
       title="pow(sin(x), 2)"
       d="m 95,622.36218 c 5.7971,-0.003 11.5942,-2.93226 17.3913,-8.37088 5.79711,-5.43863 11.59421,-13.37878 17.39131,-22.67538 5.7971,-9.2966 11.5942,-19.92992 17.3913,-30.37768 5.7971,-10.44776 11.59421,-20.67824 17.39131,-29.23518 5.7971,-8.55694 11.5942,-15.40586 17.3913,-19.58053 5.7971,-4.17467 11.5942,-5.64789 17.39131,-4.22479 5.7971,1.4231 11.5942,5.75452 17.3913,12.36104 5.7971,6.60652 11.5942,15.48145 17.3913,25.34782 5.79711,9.86638 11.59421,20.70077 17.39131,30.9543 5.7971,10.25353 11.5942,19.89284 17.3913,27.54809 5.7971,7.65524 11.59421,13.29287 17.39131,16.12093 5.7971,2.82806 11.5942,2.82255 17.3913,0 5.7971,-2.82255 11.59421,-8.46959 17.39131,-16.12093 5.7971,-7.65135 11.5942,-17.29573 17.3913,-27.54809 5.7971,-10.25236 11.5942,-21.08601 17.39131,-30.9543 5.7971,-9.86829 11.5942,-18.73686 17.3913,-25.34782 5.7971,-6.61096 11.5942,-10.93227 17.3913,-12.36104 5.79711,-1.42877 11.59421,0.0554 17.39131,4.22479 5.7971,4.16942 11.5942,11.02689 17.3913,19.58053 5.7971,8.55364 11.59421,18.78781 17.39131,29.23518 5.7971,10.44737 11.5942,21.07845 17.3913,30.37768 5.7971,9.29923 11.5942,17.23186 17.39131,22.67538 5.7971,5.44351 11.5942,8.36802 17.3913,8.37088"
       style="fill:none;stroke:#000000;stroke-width:0.60000002;stroke-miterlimit:4;stroke-opacity:1;stroke-dasharray:none;stroke-dashoffset:0"
       inkscape:connector-curvature="0" />
    <path
       style="fill:none;stroke:#000000;stroke-width:1px;stroke-linecap:butt;stroke-linejoin:miter;stroke-opacity:1"
       d="m 79,622.36218 436,0"
       id="path4310"
       inkscape:connector-curvature="0" />
    <path
       style="fill:none;stroke:#000000;stroke-width:1px;stroke-linecap:butt;stroke-linejoin:miter;stroke-opacity:1"
       d="m 295,632.36218 0,-165"
       id="path4312"
       inkscape:connector-curvature="0" />
    <path
       style="fill:none;stroke:#000000;stroke-width:1px;stroke-linecap:butt;stroke-linejoin:miter;stroke-opacity:1"
       d="m 510,617.36218 5,5 -5,5"
       id="path4314"
       inkscape:connector-curvature="0" />
    <path
       style="fill:none;stroke:#000000;stroke-width:1px;stroke-linecap:butt;stroke-linejoin:miter;stroke-opacity:1"
       d="m 290,472.36218 5,-5 5,5"
       id="path4316"
       inkscape:connector-curvature="0" />
    <path
       style="fill:none;stroke:#000000;stroke-width:0.69999999;stroke-linecap:butt;stroke-linejoin:miter;stroke-miterlimit:4;stroke-opacity:1;stroke-dasharray:2.8, 5.6;stroke-dashoffset:0"
       d="m 495,507.36218 -400,0"
       id="path4318"
       inkscape:connector-curvature="0" />
    <text
       xml:space="preserve"
       style="font-size:12px;font-style:oblique;font-weight:normal;line-height:125%;letter-spacing:0px;word-spacing:0px;fill:#000000;fill-opacity:1;stroke:none;font-family:Times New Roman;-inkscape-font-specification:Sans Oblique"
       x="262.94424"
       y="463.42294"
       id="text4320"
       sodipodi:linespacing="125%"><tspan
         sodipodi:role="line"
         id="tspan4322"
         x="262.94424"
         y="463.42294">V(x)=Esin<tspan
   style="font-size:12px;baseline-shift:super"
   id="tspan4324">2</tspan>(x/σ)</tspan></text>
    <text
       xml:space="preserve"
       style="font-size:8px;font-style:oblique;font-weight:normal;line-height:125%;letter-spacing:0px;word-spacing:0px;fill:#000000;fill-opacity:1;stroke:none;font-family:Times New Roman;-inkscape-font-specification:Sans Oblique"
       x="283.83255"
       y="503.82904"
       id="text4332"
       sodipodi:linespacing="125%"><tspan
         sodipodi:role="line"
         id="tspan4334"
         x="283.83255"
         y="503.82904"
         style="font-size:12px">E</tspan></text>
    <text
       xml:space="preserve"
       style="font-size:11px;font-style:oblique;font-weight:normal;line-height:125%;letter-spacing:0px;word-spacing:0px;fill:#000000;fill-opacity:1;stroke:none;font-family:Times New Roman;-inkscape-font-specification:Sans Oblique"
       x="454.9722"
       y="506.33411"
       id="text4336"
       sodipodi:linespacing="125%"><tspan
         sodipodi:role="line"
         id="tspan4338"
         x="454.9722"
         y="506.33411">total energy</tspan></text>
    <path
       style="fill:none;stroke:#000000;stroke-width:0.89999998;stroke-linecap:butt;stroke-linejoin:miter;stroke-miterlimit:4;stroke-opacity:1;stroke-dasharray:5.4, 5.4;stroke-dashoffset:0"
       d="m 395,507.36218 0,115"
       id="path4340"
       inkscape:connector-curvature="0" />
    <text
       xml:space="preserve"
       style="font-size:14px;font-style:oblique;font-weight:normal;line-height:125%;letter-spacing:0px;word-spacing:0px;fill:#000000;fill-opacity:1;stroke:none;font-family:Times New Roman;-inkscape-font-specification:Sans Oblique"
       x="519.15747"
       y="626.68439"
       id="text4342"
       sodipodi:linespacing="125%"><tspan
         sodipodi:role="line"
         id="tspan4344"
         x="519.15747"
         y="626.68439">x/σ</tspan></text>
    <text
       xml:space="preserve"
       style="font-size:8px;font-style:oblique;font-weight:normal;line-height:125%;letter-spacing:0px;word-spacing:0px;fill:#000000;fill-opacity:1;stroke:none;font-family:Times New Roman;-inkscape-font-specification:Sans Oblique"
       x="386.96964"
       y="635.18951"
       id="text4346"
       sodipodi:linespacing="125%"><tspan
         sodipodi:role="line"
         id="tspan4348"
         x="386.96964"
         y="635.18951"
         style="font-size:14px;font-weight:normal;-inkscape-font-specification:'Times New Roman, Italic'">π/2</tspan></text>
  </g>
</svg>
