<?xml version="1.0" encoding="UTF-8" standalone="no"?>
<!-- Created with Inkscape (http://www.inkscape.org/) -->

<svg
   xmlns:dc="http://purl.org/dc/elements/1.1/"
   xmlns:cc="http://creativecommons.org/ns#"
   xmlns:rdf="http://www.w3.org/1999/02/22-rdf-syntax-ns#"
   xmlns:svg="http://www.w3.org/2000/svg"
   xmlns="http://www.w3.org/2000/svg"
   xmlns:sodipodi="http://sodipodi.sourceforge.net/DTD/sodipodi-0.dtd"
   xmlns:inkscape="http://www.inkscape.org/namespaces/inkscape"
   width="395.12555"
   height="350.07825"
   id="svg2"
   version="1.1"
   inkscape:version="0.48.4 r9939"
   sodipodi:docname="Kinematics_planebomb.svg">
  <defs
     id="defs4">
    <marker
       inkscape:stockid="Arrow1Lstart"
       orient="auto"
       refY="0"
       refX="0"
       id="Arrow1Lstart"
       style="overflow:visible">
      <path
         id="path3773"
         d="M 0,0 5,-5 -12.5,0 5,5 0,0 z"
         style="fill-rule:evenodd;stroke:#000000;stroke-width:1pt"
         transform="matrix(0.8,0,0,0.8,10,0)"
         inkscape:connector-curvature="0" />
    </marker>
    <marker
       inkscape:stockid="Arrow1Lend"
       orient="auto"
       refY="0"
       refX="0"
       id="Arrow1Lend"
       style="overflow:visible">
      <path
         id="path3776"
         d="M 0,0 5,-5 -12.5,0 5,5 0,0 z"
         style="fill-rule:evenodd;stroke:#000000;stroke-width:1pt"
         transform="matrix(-0.8,0,0,-0.8,-10,0)"
         inkscape:connector-curvature="0" />
    </marker>
    <marker
       inkscape:stockid="Arrow1Mend"
       orient="auto"
       refY="0"
       refX="0"
       id="Arrow1Mend"
       style="overflow:visible">
      <path
         id="path3782"
         d="M 0,0 5,-5 -12.5,0 5,5 0,0 z"
         style="fill-rule:evenodd;stroke:#000000;stroke-width:1pt"
         transform="matrix(-0.4,0,0,-0.4,-4,0)"
         inkscape:connector-curvature="0" />
    </marker>
  </defs>
  <sodipodi:namedview
     id="base"
     pagecolor="#ffffff"
     bordercolor="#666666"
     borderopacity="1.0"
     inkscape:pageopacity="0.0"
     inkscape:pageshadow="2"
     inkscape:zoom="1.4"
     inkscape:cx="345.00757"
     inkscape:cy="120.23713"
     inkscape:document-units="px"
     inkscape:current-layer="layer1"
     showgrid="true"
     inkscape:window-width="1280"
     inkscape:window-height="962"
     inkscape:window-x="-8"
     inkscape:window-y="-8"
     inkscape:window-maximized="1"
     fit-margin-top="0"
     fit-margin-left="0"
     fit-margin-right="0"
     fit-margin-bottom="0">
    <inkscape:grid
       type="xygrid"
       id="grid2985"
       empspacing="5"
       visible="true"
       enabled="true"
       snapvisiblegridlinesonly="true"
       originx="-5.5px"
       originy="-662.41981px" />
  </sodipodi:namedview>
  <metadata
     id="metadata7">
    <rdf:RDF>
      <cc:Work
         rdf:about="">
        <dc:format>image/svg+xml</dc:format>
        <dc:type
           rdf:resource="http://purl.org/dc/dcmitype/StillImage" />
        <dc:title />
      </cc:Work>
    </rdf:RDF>
  </metadata>
  <g
     inkscape:label="Layer 1"
     inkscape:groupmode="layer"
     id="layer1"
     transform="translate(-5.5,-39.864136)">
    <path
       sodipodi:type="arc"
       style="fill:#000000;fill-opacity:1;stroke:#000000;stroke-width:1;stroke-miterlimit:4;stroke-opacity:1;stroke-dasharray:none;stroke-dashoffset:0"
       id="path2997"
       sodipodi:cx="85"
       sodipodi:cy="87.362183"
       sodipodi:rx="5"
       sodipodi:ry="5"
       d="m 90,87.362183 c 0,2.761423 -2.238576,5 -5,5 -2.761424,0 -5,-2.238577 -5,-5 0,-2.761424 2.238576,-5 5,-5 2.761424,0 5,2.238576 5,5 z"
       transform="translate(50,0)" />
    <path
       style="fill:none;stroke:#000000;stroke-width:1px;stroke-linecap:butt;stroke-linejoin:miter;stroke-opacity:1;marker-end:url(#Arrow1Lend)"
       d="m 100,62.362183 70,0"
       id="path3767"
       inkscape:connector-curvature="0" />
    <text
       xml:space="preserve"
       style="font-size:18px;font-style:oblique;font-weight:normal;line-height:125%;letter-spacing:0px;word-spacing:0px;fill:#000000;fill-opacity:1;stroke:none;font-family:Times New Roman;-inkscape-font-specification:Sans Oblique"
       x="110"
       y="52.362194"
       id="text4399"
       sodipodi:linespacing="125%"><tspan
         sodipodi:role="line"
         id="tspan4401"
         x="110"
         y="52.362194">u <tspan
   style="font-style:normal;-inkscape-font-specification:'Times New Roman,'"
   id="tspan4405">km/h</tspan></tspan></text>
    <path
       style="fill:none;stroke:#000000;stroke-width:1px;stroke-linecap:butt;stroke-linejoin:miter;stroke-opacity:1;marker-start:url(#Arrow1Lstart);marker-end:url(#Arrow1Lend)"
       d="m 10,128.36218 0,-39.999997 40,0"
       id="path4407"
       inkscape:connector-curvature="0" />
    <text
       xml:space="preserve"
       style="font-size:18px;font-style:oblique;font-weight:normal;line-height:125%;letter-spacing:0px;word-spacing:0px;fill:#000000;fill-opacity:1;stroke:none;font-family:Times New Roman;-inkscape-font-specification:Sans Oblique"
       x="14"
       y="136.36218"
       id="text4965"
       sodipodi:linespacing="125%"><tspan
         sodipodi:role="line"
         id="tspan4967"
         x="14"
         y="136.36218">y</tspan></text>
    <text
       xml:space="preserve"
       style="font-size:18px;font-style:oblique;font-weight:normal;line-height:125%;letter-spacing:0px;word-spacing:0px;fill:#000000;fill-opacity:1;stroke:none;font-family:Times New Roman;-inkscape-font-specification:Sans Oblique"
       x="48"
       y="100.36218"
       id="text4969"
       sodipodi:linespacing="125%"><tspan
         sodipodi:role="line"
         id="tspan4971"
         x="48"
         y="100.36218">x</tspan></text>
    <path
       sodipodi:type="arc"
       style="fill:#585858;stroke:#000000;stroke-width:1.69855869000000000;stroke-miterlimit:4;stroke-opacity:1;stroke-dasharray:none;stroke-dashoffset:0;fill-opacity:1"
       id="path4973"
       sodipodi:cx="395"
       sodipodi:cy="241.86218"
       sodipodi:rx="95"
       sodipodi:ry="9.5"
       d="m 490,241.86218 c 0,5.24671 -42.53295,9.5 -95,9.5 -52.46705,0 -95,-4.25329 -95,-9.5 0,-5.2467 42.53295,-9.5 95,-9.5 52.46705,0 95,4.2533 95,9.5 z"
       transform="matrix(0.52697649,0,0,0.65773009,141.90706,85.530584)" />
    <path
       transform="matrix(0.52697649,0,0,0.65773009,141.84429,202.03372)"
       sodipodi:type="arc"
       style="fill:none;stroke:#000000;stroke-width:1.69855869;stroke-miterlimit:4;stroke-opacity:1;stroke-dasharray:none;stroke-dashoffset:0"
       id="path4973-1"
       sodipodi:cx="395"
       sodipodi:cy="241.86218"
       sodipodi:rx="95"
       sodipodi:ry="9.5"
       d="m 490,241.86218 c 0,5.24671 -42.53295,9.5 -95,9.5 -52.46705,0 -95,-4.25329 -95,-9.5 0,-5.2467 42.53295,-9.5 95,-9.5 52.46705,0 95,4.2533 95,9.5 z" />
    <path
       style="fill:none;stroke:#000000;stroke-width:1px;stroke-linecap:butt;stroke-linejoin:miter;stroke-opacity:1"
       d="m 300,244.93949 0,116.4227"
       id="path4993"
       inkscape:connector-curvature="0" />
    <path
       style="fill:none;stroke:#000000;stroke-width:1px;stroke-linecap:butt;stroke-linejoin:miter;stroke-opacity:1"
       d="m 400.12554,244.93949 0,116.4227"
       id="path4995"
       inkscape:connector-curvature="0" />
    <path
       style="fill:none;stroke:#000000;stroke-width:1;stroke-linecap:butt;stroke-linejoin:miter;stroke-miterlimit:4;stroke-opacity:1;stroke-dasharray:3, 3;stroke-dashoffset:0;marker-start:url(#Arrow1Lstart);marker-end:url(#Arrow1Lend)"
       d="M 240,242.36217 240,87.362179"
       id="path5003"
       inkscape:connector-curvature="0" />
    <text
       xml:space="preserve"
       style="font-size:18px;font-style:italic;font-weight:normal;line-height:125%;letter-spacing:0px;word-spacing:0px;fill:#000000;fill-opacity:1;stroke:none;font-family:Times New Roman;-inkscape-font-specification:'Times New Roman, Italic'"
       x="250"
       y="172.36218"
       id="text5377"
       sodipodi:linespacing="125%"><tspan
         sodipodi:role="line"
         id="tspan5379"
         x="250"
         y="172.36218">h<tspan
   style="font-style:normal;-inkscape-font-specification:'Times New Roman,'"
   id="tspan5381"> m</tspan></tspan></text>
    <path
       style="fill:none;stroke:#000000;stroke-width:1;stroke-linecap:butt;stroke-linejoin:miter;stroke-miterlimit:4;stroke-opacity:1;stroke-dasharray:3, 3;stroke-dashoffset:0;marker-start:url(#Arrow1Lstart);marker-end:url(#Arrow1Lend)"
       d="m 300,232.36218 100,0"
       id="path5765"
       inkscape:connector-curvature="0" />
    <text
       xml:space="preserve"
       style="font-size:18px;font-style:oblique;font-weight:normal;line-height:125%;letter-spacing:0px;word-spacing:0px;fill:#000000;fill-opacity:1;stroke:none;font-family:Times New Roman;-inkscape-font-specification:Sans Oblique"
       x="340"
       y="222.3622"
       id="text6139"
       sodipodi:linespacing="125%"><tspan
         sodipodi:role="line"
         id="tspan6141"
         x="340"
         y="222.3622">d <tspan
   style="font-style:normal;-inkscape-font-specification:'Times New Roman,'"
   id="tspan6143">m</tspan></tspan></text>
    <path
       style="fill:#000080;fill-opacity:1;stroke:#000000;stroke-width:1;stroke-miterlimit:4;stroke-opacity:1;stroke-dasharray:none;stroke-dashoffset:0"
       d=""
       id="path3059"
       inkscape:connector-curvature="0"
       transform="translate(5.5,39.864136)" />
    <path
       style="fill:#9d9d9d;fill-opacity:1;stroke:#000000;stroke-width:0.20000000000000001;stroke-miterlimit:4;stroke-opacity:1;stroke-dasharray:none;stroke-dashoffset:0"
       d="m 327.4039,326.47215 c -18.52244,-0.96039 -33.18443,-3.44206 -31.96768,-5.4108 1.05946,-1.71424 10.34723,-3.42419 25.32243,-4.66205 7.29584,-0.60308 40.34119,-0.59891 47.5,0.006 8.37808,0.70793 14.6853,1.47411 18.57143,2.256 3.57858,0.72001 6.78571,1.96529 6.78571,2.63479 0,1.58569 -9.81647,3.48714 -24.03108,4.65482 -7.90996,0.64977 -33.58339,0.96703 -42.18081,0.52125 l 0,0 z"
       id="path3061"
       inkscape:connector-curvature="0"
       transform="translate(5.5,39.864136)" />
    <path
       style="fill:#9d9d9d;fill-opacity:1;stroke:#000000;stroke-width:0.20000000000000001;stroke-miterlimit:4;stroke-opacity:1;stroke-dasharray:none;stroke-dashoffset:0"
       d="m 295.22294,262.98062 c 0,-53.41355 0.0312,-56.21162 0.625,-55.95279 2.54998,1.11163 10.94491,2.64575 18.30357,3.34488 12.2979,1.16839 36.85976,1.53497 50.35714,0.75158 14.03784,-0.81477 24.25935,-2.28027 28.66072,-4.1092 0.59369,-0.2467 0.625,2.55684 0.625,55.96553 l 0,56.22525 -2.41072,-0.8015 c -5.08349,-1.69014 -16.40613,-3.06114 -30.625,-3.70822 -24.71949,-1.12495 -53.71038,0.57809 -63.125,3.70822 l -2.41071,0.8015 0,-56.22525 z"
       id="path3063"
       inkscape:connector-curvature="0"
       transform="translate(5.5,39.864136)" />
  </g>
</svg>
