<?xml version="1.0" encoding="UTF-8" standalone="no"?>
<!-- Created with Inkscape (http://www.inkscape.org/) -->

<svg
   xmlns:dc="http://purl.org/dc/elements/1.1/"
   xmlns:cc="http://creativecommons.org/ns#"
   xmlns:rdf="http://www.w3.org/1999/02/22-rdf-syntax-ns#"
   xmlns:svg="http://www.w3.org/2000/svg"
   xmlns="http://www.w3.org/2000/svg"
   xmlns:sodipodi="http://sodipodi.sourceforge.net/DTD/sodipodi-0.dtd"
   xmlns:inkscape="http://www.inkscape.org/namespaces/inkscape"
   width="107.90175"
   height="195.05469"
   id="svg2"
   version="1.1"
   inkscape:version="0.48.4 r9939"
   sodipodi:docname="MW_pickingupchain2.svg">
  <defs
     id="defs4" />
  <sodipodi:namedview
     id="base"
     pagecolor="#ffffff"
     bordercolor="#666666"
     borderopacity="1.0"
     inkscape:pageopacity="0.0"
     inkscape:pageshadow="2"
     inkscape:zoom="2.8"
     inkscape:cx="114.22524"
     inkscape:cy="85.654885"
     inkscape:document-units="px"
     inkscape:current-layer="layer1"
     showgrid="true"
     inkscape:window-width="1366"
     inkscape:window-height="748"
     inkscape:window-x="-8"
     inkscape:window-y="-8"
     inkscape:window-maximized="1"
     fit-margin-top="0"
     fit-margin-left="0"
     fit-margin-right="0"
     fit-margin-bottom="0">
    <inkscape:grid
       type="xygrid"
       id="grid2985"
       empspacing="5"
       visible="true"
       enabled="true"
       snapvisiblegridlinesonly="true"
       originx="-349.48438px"
       originy="-73.500008px" />
  </sodipodi:namedview>
  <metadata
     id="metadata7">
    <rdf:RDF>
      <cc:Work
         rdf:about="">
        <dc:format>image/svg+xml</dc:format>
        <dc:type
           rdf:resource="http://purl.org/dc/dcmitype/StillImage" />
        <dc:title></dc:title>
      </cc:Work>
    </rdf:RDF>
  </metadata>
  <g
     inkscape:label="Layer 1"
     inkscape:groupmode="layer"
     id="layer1"
     transform="translate(-349.48437,-783.8075)">
    <text
       xml:space="preserve"
       style="font-size:16px;font-style:oblique;font-weight:normal;line-height:125%;letter-spacing:0px;word-spacing:0px;fill:#000000;fill-opacity:1;stroke:none;font-family:Times New Roman;-inkscape-font-specification:Sans Oblique"
       x="375.99963"
       y="859.36218"
       id="text3956"
       sodipodi:linespacing="125%"><tspan
         sodipodi:role="line"
         id="tspan3958"
         x="375.99963"
         y="859.36218">v</tspan></text>
    <path
       style="fill:none;stroke:#000000;stroke-width:3;stroke-linecap:butt;stroke-linejoin:miter;stroke-miterlimit:4;stroke-opacity:1;stroke-dasharray:none"
       d="m 395,977.36218 0,-165"
       id="path2987"
       inkscape:connector-curvature="0" />
    <path
       style="fill:none;stroke:#000000;stroke-width:1px;stroke-linecap:butt;stroke-linejoin:miter;stroke-opacity:1"
       d="m 395,810.36218 0,-18"
       id="path3757"
       inkscape:connector-curvature="0" />
    <path
       style="fill:none;stroke:#000000;stroke-width:1px;stroke-linecap:butt;stroke-linejoin:miter;stroke-opacity:1"
       d="m 393,794.36218 2,-2 2,2"
       id="path3763"
       inkscape:connector-curvature="0" />
    <text
       xml:space="preserve"
       style="font-size:8px;font-style:oblique;font-weight:normal;line-height:125%;letter-spacing:0px;word-spacing:0px;fill:#000000;fill-opacity:1;stroke:none;font-family:Times New Roman;-inkscape-font-specification:Sans Oblique"
       x="390"
       y="789.36218"
       id="text3765"
       sodipodi:linespacing="125%"><tspan
         sodipodi:role="line"
         id="tspan3767"
         x="390"
         y="789.36218">T(0)</tspan></text>
    <text
       xml:space="preserve"
       style="font-size:8px;font-style:oblique;font-weight:normal;line-height:125%;letter-spacing:0px;word-spacing:0px;fill:#000000;fill-opacity:1;stroke:none;font-family:Times New Roman;-inkscape-font-specification:Sans Oblique"
       x="350"
       y="897.36218"
       id="text3793"
       sodipodi:linespacing="125%"><tspan
         sodipodi:role="line"
         id="tspan3795"
         x="350"
         y="897.36218"
         style="font-size:16px">L</tspan></text>
    <path
       style="fill:none;stroke:#000000;stroke-width:1px;stroke-linecap:butt;stroke-linejoin:miter;stroke-opacity:1"
       d="m 355,902.36218 0,75"
       id="path3797"
       inkscape:connector-curvature="0" />
    <path
       style="fill:none;stroke:#000000;stroke-width:1px;stroke-linecap:butt;stroke-linejoin:miter;stroke-opacity:1"
       d="m 350,972.36218 5,5 5,-5"
       id="path3803"
       inkscape:connector-curvature="0" />
    <path
       style="fill:none;stroke:#000000;stroke-width:1px;stroke-linecap:butt;stroke-linejoin:miter;stroke-opacity:1"
       d="m 355,882.36218 0,-70"
       id="path3805"
       inkscape:connector-curvature="0" />
    <path
       style="fill:none;stroke:#000000;stroke-width:1px;stroke-linecap:butt;stroke-linejoin:miter;stroke-opacity:1"
       d="m 360,817.36218 -5,-5 -5,5"
       id="path3809"
       inkscape:connector-curvature="0" />
    <path
       inkscape:connector-curvature="0"
       id="path3880"
       d="m 395,810.36218 0,-18"
       style="fill:none;stroke:#000000;stroke-width:1px;stroke-linecap:butt;stroke-linejoin:miter;stroke-opacity:1" />
    <text
       sodipodi:linespacing="125%"
       id="text3882"
       y="789.36218"
       x="390"
       style="font-size:8px;font-style:oblique;font-weight:normal;line-height:125%;letter-spacing:0px;word-spacing:0px;fill:#000000;fill-opacity:1;stroke:none;font-family:Times New Roman;-inkscape-font-specification:Sans Oblique"
       xml:space="preserve"><tspan
         y="789.36218"
         x="390"
         id="tspan3884"
         sodipodi:role="line">T(0)</tspan></text>
    <path
       style="fill:none;stroke:#000000;stroke-width:1.5;stroke-linecap:butt;stroke-linejoin:miter;stroke-miterlimit:4;stroke-opacity:1;stroke-dasharray:none"
       d="m 45.51562,193.55469 c 2.098779,-0.60437 1.296041,-0.57143 2.341523,-0.57143 0.119048,0 0.250663,-0.0532 0.357143,0 0.150584,0.0753 0.206558,0.28185 0.357143,0.35714 0.106479,0.0532 0.238095,0 0.357143,0 0.530594,0 0.984491,0.0869 1.428571,-0.35714 0.188231,-0.18823 0.19085,-0.50642 0.357143,-0.71429 0.631037,-0.78879 1.496173,-1.36683 2.142857,-2.14285 0.274788,-0.32975 0.410773,-0.76792 0.714286,-1.07143 0.18823,-0.18823 0.526055,-0.16891 0.714285,-0.35715 0.188231,-0.18823 0.238096,-0.47619 0.357143,-0.71428 0.280113,-0.56023 0.923768,-1.9952 1.428572,-2.5 0.303513,-0.30351 0.728042,-0.45675 1.071428,-0.71429 1.093984,-0.82048 -0.585578,0.22844 0.714286,-1.07143 0.188231,-0.18823 0.566625,-0.13565 0.714286,-0.35714 0.132071,-0.19811 -0.07529,-0.48841 0,-0.71428 0.05324,-0.15972 0.263754,-0.21706 0.357143,-0.35715 0.14766,-0.22149 0.238095,-0.47619 0.357142,-0.71428 0.119048,-0.2381 0.252282,-0.46961 0.357143,-0.71429 0.74501,-1.73836 0.56627,-1.66214 1.428572,-3.21428 0.337114,-0.60681 0.76099,-1.16484 1.071428,-1.78572 1.707163,-3.41432 -1.021312,1.00461 1.071429,-1.78571 0.159719,-0.21296 0.168912,-0.52606 0.357143,-0.71429 0.18823,-0.18823 0.526055,-0.16891 0.714285,-0.35714 1.856277,-1.85628 -0.338558,-0.37201 1.428572,-1.78572 0.335174,-0.26813 0.767915,-0.41077 1.071428,-0.71428 0.08418,-0.0842 -0.08418,-0.27296 0,-0.35714 0.188231,-0.18823 0.492796,-0.20949 0.714286,-0.35715 0.140083,-0.0934 0.197424,-0.3039 0.357143,-0.35714 0.437906,-0.14597 0.990665,0.14597 1.428571,0 0.15972,-0.0532 0.206559,-0.28185 0.357143,-0.35714 0.07376,-0.0369 1.733523,-0.0209 1.785715,0 0.996386,0.39855 1.764374,1.40723 2.5,2.14285 0.357142,0.35715 0.714285,0.71429 1.071428,1.07143 0.357143,0.35715 0.791263,0.65118 1.071429,1.07143 0.208823,0.31324 0.131266,0.77026 0.357143,1.07143 0.04776,0.0637 1.303341,0.6141 1.428571,0.71429 0.65733,0.52586 1.112279,1.28063 1.785714,1.78571 0.212959,0.15972 0.526055,0.16891 0.714286,0.35714 0.08418,0.0842 -0.08418,0.27297 0,0.35715 0.188231,0.18823 0.526055,0.16891 0.714286,0.35714 0.08418,0.0842 -0.08418,0.27296 0,0.35714 0.168358,0.16836 0.501327,-0.10648 0.714285,0 0.383917,0.19196 0.687512,0.52233 1.071429,0.71429 1.090747,0.54537 1.557278,0.35714 2.857143,0.35714 0.595238,0 1.243829,0.24631 1.785714,0 0.846451,-0.38475 1.390901,-1.23884 2.142857,-1.78571 0.561393,-0.40829 1.263305,-0.61432 1.785715,-1.07143 0.447962,-0.39197 0.725453,-0.94421 1.071428,-1.42857 0.617048,-0.86387 1.216017,-1.79437 1.428572,-2.85715 0.04669,-0.23347 0,-0.47619 0,-0.71428 0,-0.76908 -0.09074,-3.02696 0,-3.57143 0.276361,-1.65817 1.091556,-3.49599 1.785714,-5 0.334658,-0.72509 0.669039,-1.45305 1.071428,-2.14286 0.432556,-0.74152 0.952381,-1.42857 1.428572,-2.14286 1.457667,-2.1865 2.399594,-3.86163 4.642854,-5.35714 0.44298,-0.29532 0.96632,-0.45014 1.42857,-0.71428 0.74536,-0.42592 1.40673,-0.9869 2.14286,-1.42858 0.22826,-0.13695 0.8012,-0.10553 0.71429,-0.35714 -0.30537,-0.884 -1.08483,-1.52381 -1.62724,-2.28571"
       id="path3952"
       inkscape:connector-curvature="0"
       transform="translate(349.48437,783.8075)" />
    <path
       style="fill:none;stroke:#000000;stroke-width:0.69999999;stroke-linecap:butt;stroke-linejoin:miter;stroke-miterlimit:4;stroke-opacity:1;stroke-dasharray:none"
       d="m 30.51562,133.55469 0,-55.000003 0,0 -5,5 5,-5 5,5"
       id="path3954"
       inkscape:connector-curvature="0"
       transform="translate(349.48437,783.8075)" />
  </g>
</svg>
