<?xml version="1.0" encoding="UTF-8" standalone="no"?>
<!-- Created with Inkscape (http://www.inkscape.org/) -->

<svg
   xmlns:osb="http://www.openswatchbook.org/uri/2009/osb"
   xmlns:dc="http://purl.org/dc/elements/1.1/"
   xmlns:cc="http://creativecommons.org/ns#"
   xmlns:rdf="http://www.w3.org/1999/02/22-rdf-syntax-ns#"
   xmlns:svg="http://www.w3.org/2000/svg"
   xmlns="http://www.w3.org/2000/svg"
   xmlns:sodipodi="http://sodipodi.sourceforge.net/DTD/sodipodi-0.dtd"
   xmlns:inkscape="http://www.inkscape.org/namespaces/inkscape"
   width="744.09448819"
   height="1052.3622047"
   id="svg2"
   version="1.1"
   inkscape:version="0.48.4 r9939"
   inkscape:export-filename="C:\Users\ljw21\Work\LJW21\RSPP\LJW_Concepts\NewtonIII2.png"
   inkscape:export-xdpi="90"
   inkscape:export-ydpi="90"
   sodipodi:docname="NewtonIII2.svg">
  <defs
     id="defs4">
    <marker
       style="overflow:visible"
       id="Arrow2Lend-1"
       refX="0"
       refY="0"
       orient="auto"
       inkscape:stockid="Arrow2Lend">
      <path
         transform="matrix(-1.1,0,0,-1.1,-1.1,0)"
         d="M 8.7185878,4.0337352 -2.2072895,0.01601326 8.7185884,-4.0017078 c -1.7454984,2.3720609 -1.7354408,5.6174519 -6e-7,8.035443 z"
         style="fill-rule:evenodd;stroke-width:0.625;stroke-linejoin:round"
         id="path3800-7"
         inkscape:connector-curvature="0" />
    </marker>
    <marker
       style="overflow:visible;"
       id="Arrow2Lend"
       refX="0.0"
       refY="0.0"
       orient="auto"
       inkscape:stockid="Arrow2Lend">
      <path
         transform="scale(1.1) rotate(180) translate(1,0)"
         d="M 8.7185878,4.0337352 L -2.2072895,0.016013256 L 8.7185884,-4.0017078 C 6.9730900,-1.6296469 6.9831476,1.6157441 8.7185878,4.0337352 z "
         style="fill-rule:evenodd;stroke-width:0.62500000;stroke-linejoin:round;"
         id="path3800" />
    </marker>
    <marker
       style="overflow:visible;"
       id="Arrow1Lend"
       refX="0.0"
       refY="0.0"
       orient="auto"
       inkscape:stockid="Arrow1Lend">
      <path
         transform="scale(0.8) rotate(180) translate(12.5,0)"
         style="fill-rule:evenodd;stroke:#000000;stroke-width:1.0pt;"
         d="M 0.0,0.0 L 5.0,-5.0 L -12.5,0.0 L 5.0,5.0 L 0.0,0.0 z "
         id="path3782" />
    </marker>
    <linearGradient
       osb:paint="solid"
       id="linearGradient6503">
      <stop
         id="stop6505"
         offset="0"
         style="stop-color:#0000ff;stop-opacity:1;" />
    </linearGradient>
    <marker
       style="overflow:visible"
       id="Arrow2Lend-1-1"
       refX="0"
       refY="0"
       orient="auto"
       inkscape:stockid="Arrow2Lend">
      <path
         transform="matrix(-1.1,0,0,-1.1,-1.1,0)"
         d="M 8.7185878,4.0337352 -2.2072895,0.01601326 8.7185884,-4.0017078 c -1.7454984,2.3720609 -1.7354408,5.6174519 -6e-7,8.035443 z"
         style="fill-rule:evenodd;stroke-width:0.625;stroke-linejoin:round"
         id="path3800-7-4"
         inkscape:connector-curvature="0" />
    </marker>
    <marker
       style="overflow:visible"
       id="Arrow2Lend-1-1-8"
       refX="0"
       refY="0"
       orient="auto"
       inkscape:stockid="Arrow2Lend">
      <path
         transform="matrix(-1.1,0,0,-1.1,-1.1,0)"
         d="M 8.7185878,4.0337352 -2.2072895,0.01601326 8.7185884,-4.0017078 c -1.7454984,2.3720609 -1.7354408,5.6174519 -6e-7,8.035443 z"
         style="fill-rule:evenodd;stroke-width:0.625;stroke-linejoin:round"
         id="path3800-7-4-3"
         inkscape:connector-curvature="0" />
    </marker>
    <marker
       style="overflow:visible"
       id="Arrow2Lend-10"
       refX="0"
       refY="0"
       orient="auto"
       inkscape:stockid="Arrow2Lend">
      <path
         inkscape:connector-curvature="0"
         transform="matrix(-1.1,0,0,-1.1,-1.1,0)"
         d="M 8.7185878,4.0337352 -2.2072895,0.01601326 8.7185884,-4.0017078 c -1.7454984,2.3720609 -1.7354408,5.6174519 -6e-7,8.035443 z"
         style="fill-rule:evenodd;stroke-width:0.625;stroke-linejoin:round"
         id="path3800-73" />
    </marker>
    <marker
       style="overflow:visible"
       id="Arrow2Lend-5"
       refX="0"
       refY="0"
       orient="auto"
       inkscape:stockid="Arrow2Lend">
      <path
         inkscape:connector-curvature="0"
         transform="matrix(-1.1,0,0,-1.1,-1.1,0)"
         d="M 8.7185878,4.0337352 -2.2072895,0.01601326 8.7185884,-4.0017078 c -1.7454984,2.3720609 -1.7354408,5.6174519 -6e-7,8.035443 z"
         style="fill-rule:evenodd;stroke-width:0.625;stroke-linejoin:round"
         id="path3800-1" />
    </marker>
    <marker
       style="overflow:visible"
       id="Arrow2Lend-1-3"
       refX="0"
       refY="0"
       orient="auto"
       inkscape:stockid="Arrow2Lend">
      <path
         transform="matrix(-1.1,0,0,-1.1,-1.1,0)"
         d="M 8.7185878,4.0337352 -2.2072895,0.01601326 8.7185884,-4.0017078 c -1.7454984,2.3720609 -1.7354408,5.6174519 -6e-7,8.035443 z"
         style="fill-rule:evenodd;stroke-width:0.625;stroke-linejoin:round"
         id="path3800-7-48"
         inkscape:connector-curvature="0" />
    </marker>
    <marker
       style="overflow:visible"
       id="Arrow2Lend-9"
       refX="0"
       refY="0"
       orient="auto"
       inkscape:stockid="Arrow2Lend">
      <path
         inkscape:connector-curvature="0"
         transform="matrix(-1.1,0,0,-1.1,-1.1,0)"
         d="M 8.7185878,4.0337352 -2.2072895,0.01601326 8.7185884,-4.0017078 c -1.7454984,2.3720609 -1.7354408,5.6174519 -6e-7,8.035443 z"
         style="fill-rule:evenodd;stroke-width:0.625;stroke-linejoin:round"
         id="path3800-9" />
    </marker>
    <marker
       style="overflow:visible"
       id="Arrow2Lend-3"
       refX="0"
       refY="0"
       orient="auto"
       inkscape:stockid="Arrow2Lend">
      <path
         inkscape:connector-curvature="0"
         transform="matrix(-1.1,0,0,-1.1,-1.1,0)"
         d="M 8.7185878,4.0337352 -2.2072895,0.01601326 8.7185884,-4.0017078 c -1.7454984,2.3720609 -1.7354408,5.6174519 -6e-7,8.035443 z"
         style="fill-rule:evenodd;stroke-width:0.625;stroke-linejoin:round"
         id="path3800-3" />
    </marker>
    <marker
       style="overflow:visible"
       id="Arrow2Lend-4"
       refX="0"
       refY="0"
       orient="auto"
       inkscape:stockid="Arrow2Lend">
      <path
         inkscape:connector-curvature="0"
         transform="matrix(-1.1,0,0,-1.1,-1.1,0)"
         d="M 8.7185878,4.0337352 -2.2072895,0.01601326 8.7185884,-4.0017078 c -1.7454984,2.3720609 -1.7354408,5.6174519 -6e-7,8.035443 z"
         style="fill-rule:evenodd;stroke-width:0.625;stroke-linejoin:round"
         id="path3800-38" />
    </marker>
    <marker
       style="overflow:visible"
       id="Arrow2Lend-8"
       refX="0"
       refY="0"
       orient="auto"
       inkscape:stockid="Arrow2Lend">
      <path
         inkscape:connector-curvature="0"
         transform="matrix(-1.1,0,0,-1.1,-1.1,0)"
         d="M 8.7185878,4.0337352 -2.2072895,0.01601326 8.7185884,-4.0017078 c -1.7454984,2.3720609 -1.7354408,5.6174519 -6e-7,8.035443 z"
         style="fill-rule:evenodd;stroke-width:0.625;stroke-linejoin:round"
         id="path3800-8" />
    </marker>
    <marker
       style="overflow:visible"
       id="Arrow2Lend-1-2"
       refX="0"
       refY="0"
       orient="auto"
       inkscape:stockid="Arrow2Lend">
      <path
         transform="matrix(-1.1,0,0,-1.1,-1.1,0)"
         d="M 8.7185878,4.0337352 -2.2072895,0.01601326 8.7185884,-4.0017078 c -1.7454984,2.3720609 -1.7354408,5.6174519 -6e-7,8.035443 z"
         style="fill-rule:evenodd;stroke-width:0.625;stroke-linejoin:round"
         id="path3800-7-6"
         inkscape:connector-curvature="0" />
    </marker>
    <marker
       style="overflow:visible"
       id="Arrow2Lend-1-24"
       refX="0"
       refY="0"
       orient="auto"
       inkscape:stockid="Arrow2Lend">
      <path
         transform="matrix(-1.1,0,0,-1.1,-1.1,0)"
         d="M 8.7185878,4.0337352 -2.2072895,0.01601326 8.7185884,-4.0017078 c -1.7454984,2.3720609 -1.7354408,5.6174519 -6e-7,8.035443 z"
         style="fill-rule:evenodd;stroke-width:0.625;stroke-linejoin:round"
         id="path3800-7-61"
         inkscape:connector-curvature="0" />
    </marker>
  </defs>
  <sodipodi:namedview
     id="base"
     pagecolor="#ffffff"
     bordercolor="#666666"
     borderopacity="1.0"
     inkscape:pageopacity="0.0"
     inkscape:pageshadow="2"
     inkscape:zoom="0.69738406"
     inkscape:cx="867.08379"
     inkscape:cy="392.96877"
     inkscape:document-units="px"
     inkscape:current-layer="layer1"
     showgrid="false"
     inkscape:window-width="1920"
     inkscape:window-height="1005"
     inkscape:window-x="-9"
     inkscape:window-y="-9"
     inkscape:window-maximized="1" />
  <metadata
     id="metadata7">
    <rdf:RDF>
      <cc:Work
         rdf:about="">
        <dc:format>image/svg+xml</dc:format>
        <dc:type
           rdf:resource="http://purl.org/dc/dcmitype/StillImage" />
        <dc:title />
      </cc:Work>
    </rdf:RDF>
  </metadata>
  <g
     inkscape:label="Layer 1"
     inkscape:groupmode="layer"
     id="layer1">
    <rect
       style="fill:#c8b7b7;fill-opacity:1;stroke:#000000;stroke-width:2;stroke-miterlimit:4;stroke-opacity:1;stroke-dasharray:none"
       id="rect2985"
       width="91.072815"
       height="103.40559"
       x="329.03232"
       y="165.87706" />
    <rect
       style="fill:#93938c;fill-opacity:1;stroke:#000000;stroke-width:1.26705991999999990;stroke-miterlimit:4;stroke-opacity:1;stroke-dasharray:none"
       id="rect2987-8"
       width="142.65707"
       height="14.850606"
       x="473.8942"
       y="-377.4957"
       transform="matrix(0.0128149,0.99991789,-0.99957708,0.02908036,0,0)" />
    <rect
       style="fill:#800000;fill-opacity:1;stroke:#000000;stroke-width:2;stroke-miterlimit:4;stroke-opacity:1;stroke-dasharray:none"
       id="rect2987"
       width="370.93201"
       height="14.230128"
       x="183.29803"
       y="448.51355" />
    <text
       xml:space="preserve"
       style="font-size:20px;font-style:italic;font-weight:bold;line-height:125%;letter-spacing:0px;word-spacing:0px;fill:#0000ff;fill-opacity:1;stroke:none;font-family:Palatino Linotype;-inkscape-font-specification:Palatino Linotype Bold Italic;font-stretch:normal;font-variant:normal"
       x="385.76898"
       y="197.7382"
       id="text5937"
       sodipodi:linespacing="125%"><tspan
         sodipodi:role="line"
         id="tspan5939"
         x="385.76898"
         y="197.7382"
         style="font-size:40px;font-style:italic;font-variant:normal;font-weight:bold;font-stretch:normal;text-align:start;line-height:125%;writing-mode:lr-tb;text-anchor:start;fill:#0000ff;fill-opacity:1;font-family:Palatino Linotype;-inkscape-font-specification:Palatino Linotype Bold Italic">N</tspan></text>
    <text
       xml:space="preserve"
       style="font-size:20px;font-style:italic;font-weight:bold;line-height:125%;letter-spacing:0px;word-spacing:0px;fill:#000000;fill-opacity:1;stroke:none;font-family:Palatino Linotype;-inkscape-font-specification:Palatino Linotype Bold Italic;font-stretch:normal;font-variant:normal"
       x="389.45642"
       y="354.00345"
       id="text5941"
       sodipodi:linespacing="125%"><tspan
         sodipodi:role="line"
         id="tspan5943"
         x="389.45642"
         y="354.00345"
         style="font-size:40px;font-style:italic;font-variant:normal;font-weight:bold;font-stretch:normal;text-align:start;line-height:125%;writing-mode:lr-tb;text-anchor:start;font-family:Palatino Linotype;-inkscape-font-specification:Palatino Linotype Bold Italic">W<tspan
   style="font-size:65.00091553000000000%;baseline-shift:sub;font-style:italic;-inkscape-font-specification:Palatino Linotype Bold Italic;font-weight:bold;font-family:Palatino Linotype;font-stretch:normal;font-variant:normal"
   id="tspan4203">b</tspan></tspan></text>
    <path
       style="fill:none;stroke:#ff0000;stroke-width:3.29999995000000010;stroke-linecap:butt;stroke-linejoin:miter;stroke-miterlimit:4;stroke-opacity:1;stroke-dasharray:none;marker-end:url(#Arrow2Lend)"
       d="m 378.88195,461.44218 0.77977,152.05604"
       id="path3773-0"
       inkscape:connector-curvature="0" />
    <path
       style="fill:#939390;fill-opacity:1;fill-rule:nonzero;stroke:#0000ff;stroke-width:2.75771904000000000;stroke-linecap:butt;stroke-linejoin:miter;stroke-miterlimit:4;stroke-opacity:1;stroke-dasharray:none;stroke-dashoffset:0;marker-end:url(#Arrow2Lend-1)"
       d="m 376.31574,456.89991 1.47995,105.50476"
       id="path4619-3"
       inkscape:connector-curvature="0" />
    <text
       xml:space="preserve"
       style="font-size:20px;font-style:italic;font-weight:bold;line-height:125%;letter-spacing:0px;word-spacing:0px;fill:#0000ff;fill-opacity:1;stroke:none;font-family:Palatino Linotype;-inkscape-font-specification:Palatino Linotype Bold Italic;font-stretch:normal;font-variant:normal"
       x="334.11011"
       y="561.02917"
       id="text5937-9"
       sodipodi:linespacing="125%"><tspan
         sodipodi:role="line"
         id="tspan5939-8"
         x="334.11011"
         y="561.02917"
         style="font-size:40px;font-style:italic;font-variant:normal;font-weight:bold;font-stretch:normal;text-align:start;line-height:125%;writing-mode:lr-tb;text-anchor:start;fill:#0000ff;fill-opacity:1;font-family:Palatino Linotype;-inkscape-font-specification:Palatino Linotype Bold Italic">N</tspan></text>
    <path
       style="fill:#0000ff;fill-opacity:1;fill-rule:nonzero;stroke:#0000ff;stroke-width:2.75771904000000000;stroke-linecap:butt;stroke-linejoin:miter;stroke-miterlimit:4;stroke-opacity:1;stroke-dasharray:none;stroke-dashoffset:0;marker-end:url(#Arrow2Lend-1)"
       d="M 375.43968,268.78364 373.95973,163.27888"
       id="path4619-3-4"
       inkscape:connector-curvature="0" />
    <path
       style="fill:#006800;fill-opacity:1;fill-rule:nonzero;stroke:#007700;stroke-width:3.29999995000000010;stroke-miterlimit:4;stroke-opacity:1;stroke-dasharray:none;stroke-dashoffset:0"
       id="path4171"
       d="m 66.039539,869.10012 c 2.670647,-1.30327 5.586321,-1.97693 8.379795,-2.94747 0.956866,-0.33245 1.892976,-0.72187 2.839465,-1.08281 1.035354,-0.34829 2.070709,-0.69659 3.106064,-1.04488 8.961596,-3.43344 18.429621,-5.1777 27.690587,-7.58396 10.15928,-2.60404 20.22807,-5.54366 30.35184,-8.28188 9.26919,-2.84032 18.62422,-5.37309 28.0073,-7.8055 7.39286,-1.80766 14.87331,-3.17731 22.34555,-4.6003 6.42315,-1.26898 12.79589,-2.80009 19.13068,-4.45281 5.27301,-1.34725 10.4131,-3.11255 15.5101,-5.00477 2.85964,-1.12292 1.71942,-0.58884 4.37043,-1.95962 0.61936,-0.32025 2.4548,-1.32282 1.85234,-0.97179 -17.44474,10.16426 -10.09961,6.19985 -6.4666,3.05743 2.66843,-2.87528 5.12104,-5.84641 8.22693,-8.27303 5.89839,-3.95554 2.12951,-1.4879 15.04192,-8.82715 0.90981,-0.51712 3.5412,-1.84786 4.46709,-2.25317 1.67864,-0.73482 3.39781,-1.37436 5.07887,-2.10364 5.79976,-2.04926 11.3659,-4.6693 17.02736,-7.05806 4.3076,-1.77128 8.52797,-3.75299 12.67436,-5.87245 -1.00725,0.69551 3.81428,-2.12149 2.86678,-1.5803 -3.36652,1.92288 -6.71532,3.87689 -10.09249,5.781 -0.85871,0.48416 1.65433,-1.07418 2.50789,-1.56736 4.21851,-2.43747 8.45015,-4.85213 12.67522,-7.2782 3.38796,-1.55829 7.06044,-2.12451 10.73908,-2.46557 5.1863,-0.63612 10.15939,0.82324 15.04155,2.38601 10.38597,4.04236 20.34897,9.07105 30.30265,14.05954 10.64688,5.41786 21.31114,10.78936 32.31597,15.44624 6.04432,2.41022 12.08962,4.84685 18.30314,6.79101 4.60511,1.35557 9.39535,1.64053 14.16253,1.80004 4.976,0.33468 9.85599,-0.17038 14.64901,-1.50334 5.38435,-2.16813 10.72082,-4.33645 16.36206,-5.74498 7.55334,-1.78891 15.21391,-0.39267 22.63193,1.34323 10.89774,3.10026 21.20308,7.8408 31.68916,12.06022 6.61707,2.61851 13.24285,5.18833 20.06818,7.20937 4.99209,1.3268 10.04983,2.39785 15.16159,3.13926 4.99492,0.93093 9.99008,1.75455 15.05495,2.18684 5.1873,0.34353 10.11451,-1.06078 14.94577,-2.75799 0.86822,-0.3198 1.73995,-0.63024 2.60466,-0.95942 2.21898,-0.84471 2.92575,-1.09328 5.02214,-2.23891 0.81647,-0.44619 3.208,-1.88653 2.39847,-1.42787 -7.88026,4.46475 -12.01256,7.02773 -6.5169,3.65788 7.04569,-4.76982 14.73015,-8.48153 22.03,-12.8268 -19.41614,11.65187 -8.34947,5.07519 -4.28291,1.63894 2.52742,-2.24808 5.24205,-4.28107 7.97145,-6.27583 7.64261,-5.76911 16.13752,-10.29763 24.76447,-14.41276 4.4127,-1.97832 9.06922,-3.04519 13.84767,-3.60225 4.23153,-0.29073 8.49772,-0.64023 12.70178,0.0519 2.93001,0.68754 5.52966,2.26513 7.83567,4.15442 2.64299,2.11842 4.4683,4.8281 6.21879,7.6793 2.3139,3.68082 3.97067,7.70207 5.71255,11.6694 1.63068,3.62949 2.88786,7.39656 4.83323,10.87759 1.16272,1.96698 2.2025,4.03642 3.65606,5.8108 0.96789,1.27969 2.05391,2.40814 2.94277,3.74992 1.10544,1.43391 2.44344,2.59929 3.78959,3.79055 2.05799,1.66004 3.86589,3.46987 5.44563,5.59302 2.31949,2.34756 4.4805,4.82007 6.66864,7.28778 3.20857,3.28015 5.53638,7.19596 8.03465,11.00429 1.90336,2.48913 3.49509,5.20251 5.38659,7.69634 1.14057,1.38246 2.70476,1.66273 4.39272,1.80255 0,0 -10.96334,7.74538 -10.96334,7.74538 l 0,0 c -1.97099,-0.35486 -3.69212,-1.07851 -4.93579,-2.73141 -1.83976,-2.55808 -3.33396,-5.35604 -5.23146,-7.87993 -2.42848,-3.77992 -4.76099,-7.62012 -7.99322,-10.79276 -2.23318,-2.47517 -4.50881,-4.90141 -6.77207,-7.3473 -1.57967,-2.02188 -3.42748,-3.68809 -5.41267,-5.30446 -1.43515,-1.25735 -2.8361,-2.54099 -3.99665,-4.06673 -0.88745,-1.29489 -1.97433,-2.39918 -2.88819,-3.67439 -1.41306,-1.8946 -2.49135,-4.01037 -3.62696,-6.07679 -1.90526,-3.55014 -3.1506,-7.36493 -4.7789,-11.04158 -1.71237,-3.9104 -3.39175,-7.85022 -5.69454,-11.46167 -1.70533,-2.70126 -3.49219,-5.28055 -6.07686,-7.23125 -2.21165,-1.68823 -4.58535,-3.15954 -7.37909,-3.62332 -4.11789,-0.53665 -8.29117,-0.19628 -12.4111,0.18494 -4.6834,0.65563 -9.24044,1.85122 -13.53222,3.8849 -0.78017,0.37202 -1.56358,0.73732 -2.34052,1.11605 -0.82884,0.40403 -3.25978,1.7189 -2.47665,1.23214 2.88535,-1.79342 5.85553,-3.44665 8.79096,-5.15687 0.75822,-0.44176 -1.51911,0.87994 -2.25924,1.35139 -0.71371,0.45461 -1.41212,0.9335 -2.10048,1.42565 -0.65473,0.4681 -1.28503,0.96946 -1.92754,1.45419 -2.68381,1.94432 -5.33806,3.94927 -7.84492,6.1013 -5.46912,4.89358 -11.86399,8.25462 -18.38043,11.72293 -0.47738,0.26365 -0.95103,0.53414 -1.43212,0.79093 -7.77883,4.15224 14.1552,-8.54588 5.85503,-3.56226 -0.65566,0.39368 -1.30974,0.79034 -1.95375,1.20281 -0.67258,0.43078 -1.33027,0.88438 -1.9954,1.32657 -8.31197,5.18767 -16.65329,10.60289 -26.00215,13.70602 -4.96255,1.64144 -10.03144,2.83709 -15.30527,2.34217 -5.07657,-0.49096 -10.08229,-1.39165 -15.10737,-2.24686 -5.12397,-0.81931 -10.21303,-1.88851 -15.19702,-3.34252 -6.75468,-2.10112 -13.27573,-4.81508 -19.80045,-7.53843 -10.36343,-4.36615 -20.59576,-9.18459 -31.56907,-11.86844 -7.46518,-1.45851 -15.08397,-2.68147 -22.57444,-0.6417 -5.61971,1.56113 -10.93645,3.86978 -16.43285,5.79037 -4.90986,1.17033 -9.87516,1.57659 -14.92104,1.23164 -4.83728,-0.20583 -9.68069,-0.62777 -14.31568,-2.13416 -6.1366,-2.06837 -12.13828,-4.50318 -18.06912,-7.10104 -10.8227,-4.89757 -21.30532,-10.47228 -31.9356,-15.76706 -10.08069,-4.90829 -20.19548,-9.85233 -30.83368,-13.45648 -4.87094,-1.40956 -9.79441,-2.59951 -14.89926,-1.83584 -3.63787,0.4674 -7.26759,1.16371 -10.51849,2.95493 3.36631,-1.95211 6.73489,-3.90029 10.09893,-5.85631 0.41627,-0.24205 -0.84421,0.4641 -1.25561,0.71434 -0.4327,0.2632 -0.83938,0.56815 -1.27568,0.82535 -5.11819,3.01722 -10.18838,6.21354 -15.51632,8.88243 -4.12622,1.99946 -8.27709,3.94716 -12.53332,5.65805 -5.65867,2.41021 -11.27616,4.91656 -17.03764,7.07766 -2.49478,1.07385 -4.98495,2.1047 -7.39417,3.36292 -0.72738,0.37989 -2.87055,1.5907 -2.16641,1.1693 16.63815,-9.95728 10.95106,-6.46048 7.43588,-4.2862 -1.64857,1.14634 -3.14209,2.31706 -4.51797,3.7895 -1.61096,1.72401 -0.76987,0.99873 -2.35961,2.83637 -0.4478,0.51764 -0.93147,1.00314 -1.39721,1.50471 -6.10773,6.10917 -14.36192,9.6773 -22.26819,12.93831 -5.10211,1.85875 -10.27013,3.52596 -15.53736,4.85829 -6.31779,1.59024 -12.66884,3.06489 -19.06605,4.30034 -7.41714,1.40048 -14.83763,2.78568 -22.17422,4.5747 -9.33151,2.39638 -18.62056,4.94096 -27.85026,7.7061 -10.10769,2.76797 -20.17825,5.67623 -30.338006,8.24968 -9.389647,2.39653 -18.927961,4.35723 -27.970135,7.92758 -4.896971,1.72394 -9.86887,3.29829 -14.602532,5.43799 0,0 10.488722,-8.31214 10.488722,-8.31214 z"
       inkscape:connector-curvature="0" />
    <text
       xml:space="preserve"
       style="font-size:20px;font-style:italic;font-weight:bold;line-height:125%;letter-spacing:0px;word-spacing:0px;fill:#000000;fill-opacity:1;stroke:none;font-family:Palatino Linotype;-inkscape-font-specification:Palatino Linotype Bold Italic;font-stretch:normal;font-variant:normal"
       x="321.0119"
       y="745.55707"
       id="text5941-9"
       sodipodi:linespacing="125%"><tspan
         sodipodi:role="line"
         id="tspan5943-6"
         x="321.0119"
         y="745.55707"
         style="font-size:40px;font-style:italic;font-variant:normal;font-weight:bold;font-stretch:normal;text-align:start;line-height:125%;writing-mode:lr-tb;text-anchor:start;font-family:Palatino Linotype;-inkscape-font-specification:Palatino Linotype Bold Italic">W<tspan
   style="font-size:65.00091553000000000%;baseline-shift:sub;font-style:italic;-inkscape-font-specification:Palatino Linotype Bold Italic;font-weight:bold;font-family:Palatino Linotype;font-stretch:normal;font-variant:normal"
   id="tspan4205">b</tspan></tspan></text>
    <text
       xml:space="preserve"
       style="font-size:20px;font-style:italic;font-weight:bold;line-height:125%;letter-spacing:0px;word-spacing:0px;fill:#ff0000;fill-opacity:1;stroke:none;font-family:Palatino Linotype;-inkscape-font-specification:Palatino Linotype Bold Italic;font-stretch:normal;font-variant:normal"
       x="392.61395"
       y="612.29272"
       id="text5941-99"
       sodipodi:linespacing="125%"><tspan
         sodipodi:role="line"
         id="tspan5943-68"
         x="392.61395"
         y="612.29272"
         style="font-size:40px;font-style:italic;font-variant:normal;font-weight:bold;font-stretch:normal;text-align:start;line-height:125%;writing-mode:lr-tb;text-anchor:start;fill:#ff0000;fill-opacity:1;stroke:none;font-family:Palatino Linotype;-inkscape-font-specification:Palatino Linotype Bold Italic">W<tspan
   style="font-size:65.00091553000000000%;baseline-shift:sub;font-style:italic;-inkscape-font-specification:Palatino Linotype Bold Italic;font-weight:bold;font-family:Palatino Linotype;font-stretch:normal;font-variant:normal"
   id="tspan4246">t</tspan></tspan></text>
    <text
       xml:space="preserve"
       style="font-size:20px;font-style:italic;font-weight:bold;line-height:125%;letter-spacing:0px;word-spacing:0px;fill:#ff0000;fill-opacity:1;stroke:none;font-family:Palatino Linotype;-inkscape-font-specification:Palatino Linotype Bold Italic;font-stretch:normal;font-variant:normal"
       x="403.83734"
       y="703.85443"
       id="text5941-99-5"
       sodipodi:linespacing="125%"><tspan
         sodipodi:role="line"
         id="tspan5943-68-5"
         x="403.83734"
         y="703.85443"
         style="font-size:40px;font-style:italic;font-variant:normal;font-weight:bold;font-stretch:normal;text-align:start;line-height:125%;writing-mode:lr-tb;text-anchor:start;fill:#ff0000;fill-opacity:1;stroke:none;font-family:Palatino Linotype;-inkscape-font-specification:Palatino Linotype Bold Italic">W<tspan
   style="font-size:65.00091553000000000%;baseline-shift:sub;font-style:italic;-inkscape-font-specification:Palatino Linotype Bold Italic;font-weight:bold;font-family:Palatino Linotype;font-stretch:normal;font-variant:normal"
   id="tspan4246-3">t</tspan></tspan></text>
    <path
       style="fill:none;stroke:#ff0000;stroke-width:3.29999995000000010;stroke-linecap:butt;stroke-linejoin:miter;stroke-miterlimit:4;stroke-opacity:1;stroke-dasharray:none;marker-end:url(#Arrow2Lend)"
       d="M 386.76425,815.13066 385.98448,663.07462"
       id="path3773-0-0"
       inkscape:connector-curvature="0" />
    <path
       style="fill:none;stroke:#000000;stroke-width:2.88364457999999990;stroke-linecap:butt;stroke-linejoin:miter;stroke-miterlimit:4;stroke-opacity:1;stroke-dasharray:none;marker-end:url(#Arrow2Lend)"
       d="M 384.22906,813.59956 383.43629,699.39659"
       id="path3773-7"
       inkscape:connector-curvature="0" />
    <path
       style="fill:none;stroke:#000000;stroke-width:2.88364457999999990;stroke-linecap:butt;stroke-linejoin:miter;stroke-miterlimit:4;stroke-opacity:1;stroke-dasharray:none;marker-end:url(#Arrow2Lend)"
       d="m 372.78873,220.94616 0.79277,114.20297"
       id="path3773-7-0"
       inkscape:connector-curvature="0" />
    <path
       style="fill:#f79200;fill-opacity:1;fill-rule:nonzero;stroke:#ff8800;stroke-width:2.75771904000000000;stroke-linecap:butt;stroke-linejoin:miter;stroke-miterlimit:4;stroke-opacity:1;stroke-dasharray:none;stroke-dashoffset:0;marker-end:url(#Arrow2Lend-1)"
       d="m 378.11006,453.75437 -1.48,-105.50475"
       id="path4619-3-1"
       inkscape:connector-curvature="0" />
    <text
       xml:space="preserve"
       style="font-size:20px;font-style:italic;font-weight:bold;line-height:125%;letter-spacing:0px;word-spacing:0px;fill:#ff6c00;fill-opacity:1;stroke:none;font-family:Palatino Linotype;-inkscape-font-specification:Palatino Linotype Bold Italic;font-stretch:normal;font-variant:normal"
       x="316.44476"
       y="370.67218"
       id="text5937-9-9"
       sodipodi:linespacing="125%"><tspan
         sodipodi:role="line"
         id="tspan5939-8-8"
         x="316.44476"
         y="370.67218"
         style="font-size:40px;font-style:italic;font-variant:normal;font-weight:bold;font-stretch:normal;text-align:start;line-height:125%;writing-mode:lr-tb;text-anchor:start;fill:#ff6c00;fill-opacity:1;font-family:Palatino Linotype;-inkscape-font-specification:Palatino Linotype Bold Italic">N<tspan
   style="font-size:65.00091553000000000%;baseline-shift:sub;fill:#ff6c00;fill-opacity:1;font-style:italic;-inkscape-font-specification:Palatino Linotype Bold Italic;font-weight:bold;font-family:Palatino Linotype;font-stretch:normal;font-variant:normal"
   id="tspan4398">E</tspan></tspan></text>
    <text
       xml:space="preserve"
       style="font-size:20px;font-style:italic;font-weight:bold;line-height:125%;letter-spacing:0px;word-spacing:0px;fill:#ff6c00;fill-opacity:1;stroke:none;font-family:Palatino Linotype;-inkscape-font-specification:Palatino Linotype Bold Italic;font-stretch:normal;font-variant:normal"
       x="396.92926"
       y="896.32343"
       id="text5937-9-9-5"
       sodipodi:linespacing="125%"
       inkscape:transform-center-x="134.7477"><tspan
         sodipodi:role="line"
         id="tspan5939-8-8-3"
         x="396.92926"
         y="896.32343"
         style="font-size:40px;font-style:italic;font-variant:normal;font-weight:bold;font-stretch:normal;text-align:start;line-height:125%;writing-mode:lr-tb;text-anchor:start;fill:#ff6c00;fill-opacity:1;font-family:Palatino Linotype;-inkscape-font-specification:Palatino Linotype Bold Italic">N<tspan
   style="font-size:65.00091553000000000%;baseline-shift:sub;fill:#ff6c00;fill-opacity:1;font-style:italic;-inkscape-font-specification:Palatino Linotype Bold Italic;font-weight:bold;font-family:Palatino Linotype;font-stretch:normal;font-variant:normal"
   id="tspan4398-9">E</tspan></tspan></text>
    <path
       style="fill:#f79200;fill-opacity:1;fill-rule:nonzero;stroke:#ff8800;stroke-width:2.75771904000000000;stroke-linecap:butt;stroke-linejoin:miter;stroke-miterlimit:4;stroke-opacity:1;stroke-dasharray:none;stroke-dashoffset:0;marker-end:url(#Arrow2Lend-1)"
       d="m 385.50187,813.81436 1.48,105.50475"
       id="path4619-3-1-8"
       inkscape:connector-curvature="0" />
  </g>
</svg>
