<?xml version="1.0" encoding="UTF-8" standalone="no"?>
<!-- Created with Inkscape (http://www.inkscape.org/) -->

<svg
   xmlns:dc="http://purl.org/dc/elements/1.1/"
   xmlns:cc="http://creativecommons.org/ns#"
   xmlns:rdf="http://www.w3.org/1999/02/22-rdf-syntax-ns#"
   xmlns:svg="http://www.w3.org/2000/svg"
   xmlns="http://www.w3.org/2000/svg"
   xmlns:sodipodi="http://sodipodi.sourceforge.net/DTD/sodipodi-0.dtd"
   xmlns:inkscape="http://www.inkscape.org/namespaces/inkscape"
   width="381.49228"
   height="13588.6"
   id="svg2"
   version="1.1"
   inkscape:version="0.48.4 r9939"
   sodipodi:docname="New document 1">
  <sodipodi:namedview
     id="base"
     pagecolor="#ffffff"
     bordercolor="#666666"
     borderopacity="1.0"
     inkscape:pageopacity="0.0"
     inkscape:pageshadow="2"
     inkscape:zoom="1.979899"
     inkscape:cx="212.96456"
     inkscape:cy="109.61162"
     inkscape:document-units="px"
     inkscape:current-layer="svg2"
     showgrid="true"
     inkscape:window-width="1366"
     inkscape:window-height="748"
     inkscape:window-x="-8"
     inkscape:window-y="-8"
     inkscape:window-maximized="1"
     fit-margin-top="0"
     fit-margin-left="0"
     fit-margin-right="0"
     fit-margin-bottom="0">
    <inkscape:grid
       type="xygrid"
       id="grid2985"
       empspacing="5"
       visible="true"
       enabled="true"
       snapvisiblegridlinesonly="true"
       originx="-250px"
       originy="-41.4px" />
  </sodipodi:namedview>
  <defs
     id="defs4" />
  <metadata
     id="metadata7">
    <rdf:RDF>
      <cc:Work
         rdf:about="">
        <dc:format>image/svg+xml</dc:format>
        <dc:type
           rdf:resource="http://purl.org/dc/dcmitype/StillImage" />
        <dc:title></dc:title>
      </cc:Work>
    </rdf:RDF>
  </metadata>
  <g
     inkscape:label="Layer 1"
     inkscape:groupmode="layer"
     id="layer1"
     transform="translate(-250,12577.638)">
    <path
       style="fill:none;stroke:none"
       d="m 250,922.36218 c 5.44444,-0.02 10.88889,-20.02 16.33333,-60 5.44445,-39.98 10.88889,-100.02 16.33334,-180 5.44444,-79.98 10.88889,-180.02 16.33333,-300 5.44444,-119.98 10.88889,-260.02 16.33333,-420 5.44445,-159.98 10.88889,-340.02 16.33334,-540 5.44444,-199.98 10.88889,-420.02 16.33333,-659.99998 5.44444,-239.98 10.88889,-500.02 16.33333,-780 5.44445,-279.98 10.88889,-580.02 16.33334,-900 5.44444,-319.98 10.88889,-660.02 16.33333,-1020 5.44444,-359.98 10.88889,-740.02 16.33333,-1140 5.44445,-399.98 10.88889,-820.02 16.33334,-1260 5.44444,-439.98 10.88889,-900.02 16.33333,-1380 5.44444,-479.98 10.88889,-980.02 16.33333,-1500 5.44445,-519.98 10.88889,-1060.0202 16.33334,-1620.0002 5.44444,-559.98 10.88889,-1140.02 16.33333,-1740"
       title="pow(x,2)"
       id="path4033"
       inkscape:connector-curvature="0" />
  </g>
  <path
     id="path4822"
     title="pow(x,2)/pow(0.5+x,4)"
     d="m 70,13580 c 6,-0.116 12,-60.02 18,-81.045 6,-21.026 12,-28.161 18,-30.54 6,-2.379 12,0 18,3.325 6,3.317 12,7.764 18,12.174 6,4.409 12,8.847 18,13.002 6,4.154 12,8.044 18,11.622 6,3.578 12,6.848 18,9.84 6,2.993 12,5.707 18,8.19 6,2.482 12,4.733 18,6.794 6,2.062 12,3.935 18,5.655 6,1.721 12,3.288 18,4.733 6,1.444 12,2.766 18,3.987 6,1.222 12,2.343 18,3.384 6,1.04 12,1.999 18,2.89 6,0.892 12,1.717 18,2.487"
     style="fill:none;stroke:#000000;stroke-opacity:1"
     inkscape:connector-curvature="0" />
  <path
     style="fill:none;stroke:#000000;stroke-width:0.60000002;stroke-linecap:butt;stroke-linejoin:miter;stroke-miterlimit:4;stroke-opacity:1;stroke-dasharray:none"
     d="m 70,13440 0,140 290,0"
     id="path4830"
     inkscape:connector-curvature="0" />
  <path
     style="fill:none;stroke:#000000;stroke-width:0.60000002;stroke-linecap:butt;stroke-linejoin:miter;stroke-miterlimit:4;stroke-opacity:1;stroke-dasharray:none"
     d="m 65,13445 5,-5 5,5"
     id="path4832"
     inkscape:connector-curvature="0" />
  <path
     style="fill:none;stroke:#000000;stroke-width:0.60000002;stroke-linecap:butt;stroke-linejoin:miter;stroke-miterlimit:4;stroke-opacity:1;stroke-dasharray:none"
     d="m 355,13575 5,5 -5,5"
     id="path4834"
     inkscape:connector-curvature="0" />
  <text
     xml:space="preserve"
     style="font-size:8px;font-style:oblique;font-weight:normal;line-height:125%;letter-spacing:0px;word-spacing:0px;fill:#000000;fill-opacity:1;stroke:none;font-family:Times New Roman;-inkscape-font-specification:Sans Oblique"
     x="363"
     y="13585"
     id="text4836"
     sodipodi:linespacing="125%"><tspan
       sodipodi:role="line"
       id="tspan4838"
       x="363"
       y="13585"
       style="font-size:18px">m<tspan
   style="font-size:65.00091553%;baseline-shift:sub"
   id="tspan4842">2</tspan></tspan></text>
  <text
     xml:space="preserve"
     style="font-size:8px;font-style:oblique;font-weight:normal;line-height:125%;letter-spacing:0px;word-spacing:0px;fill:#000000;fill-opacity:1;stroke:none;font-family:Times New Roman;-inkscape-font-specification:Sans Oblique"
     x="45.44931"
     y="13435.484"
     id="text4844"
     sodipodi:linespacing="125%"><tspan
       sodipodi:role="line"
       id="tspan4846"
       x="45.44931"
       y="13435.484"
       style="font-size:18px">K.E.<tspan
   style="font-size:65.00091553%;baseline-shift:sub"
   id="tspan4850">3final</tspan></tspan></text>
</svg>
